<svg xmlns="http://www.w3.org/2000/svg" width="208" height="122" viewBox="0 0 208 122">
  <g fill="none" fill-rule="evenodd">
    <rect width="208" height="36" fill="#000" fill-opacity=".04" rx="2"/>
    <g transform="translate(12 10)">
      <circle cx="8" cy="8" r="8" fill="#00BFA5" fill-opacity=".8"/>
      <path fill="#F3F3F3" d="M7.3,4 L8.788,4 L12.088,12.568 L10.684,12.568 L9.88,10.36 L6.196,10.36 L5.392,12.568 L4,12.568 L7.3,4 Z M6.592,9.28 L9.484,9.28 L8.068,5.404 L8.02,5.404 L6.592,9.28 Z"/>
    </g>
    <g transform="translate(40 10)">
      <circle cx="8" cy="8" r="8" fill="#4D90FE" fill-opacity=".8"/>
      <path fill="#F3F3F3" d="M5,4 L8.912,4 C9.752,4 10.4,4.192 10.88,4.6 C11.336,4.984 11.564,5.5 11.564,6.16 C11.564,6.64 11.444,7.048 11.204,7.384 C10.964,7.696 10.64,7.936 10.208,8.092 C10.772,8.2 11.204,8.428 11.492,8.776 C11.78,9.124 11.924,9.592 11.924,10.168 C11.924,11.032 11.624,11.656 11.036,12.064 C10.532,12.4 9.824,12.568 8.912,12.568 L5,12.568 L5,4 Z M6.308,5.08 L6.308,7.636 L8.564,7.636 C9.164,7.636 9.596,7.528 9.86,7.324 C10.124,7.108 10.256,6.772 10.256,6.316 C10.256,5.884 10.124,5.572 9.86,5.38 C9.596,5.176 9.164,5.08 8.588,5.08 L6.308,5.08 Z M6.308,8.704 L6.308,11.488 L8.732,11.488 C9.284,11.488 9.716,11.392 10.028,11.224 C10.412,10.996 10.616,10.636 10.616,10.144 C10.616,9.64 10.46,9.268 10.16,9.04 C9.86,8.812 9.392,8.704 8.768,8.704 L6.308,8.704 Z"/>
    </g>
    <g transform="translate(68 10)">
      <circle cx="8" cy="8" r="8" fill="#FFB100" fill-opacity=".8"/>
      <path fill="#F3F3F3" d="M8.08,4 C9.076,4 9.904,4.252 10.552,4.78 C11.176,5.284 11.56,5.98 11.692,6.844 L10.42,6.844 C10.276,6.268 10,5.836 9.592,5.56 C9.184,5.284 8.68,5.152 8.056,5.152 C7.132,5.152 6.436,5.464 5.968,6.1 C5.524,6.676 5.308,7.468 5.308,8.464 C5.308,9.496 5.524,10.288 5.956,10.852 C6.412,11.452 7.12,11.752 8.08,11.752 C8.704,11.752 9.232,11.596 9.64,11.284 C10.072,10.948 10.372,10.444 10.54,9.772 L11.812,9.772 C11.62,10.768 11.176,11.548 10.468,12.112 C9.808,12.64 9.016,12.904 8.092,12.904 C6.688,12.904 5.632,12.448 4.924,11.56 C4.3,10.792 4,9.76 4,8.464 C4,7.192 4.312,6.16 4.96,5.356 C5.68,4.444 6.712,4 8.08,4 Z"/>
    </g>
    <circle cx="104" cy="18" r="6" stroke="#F44336" stroke-opacity=".8" stroke-width="4"/>
    <g transform="translate(124 10)">
      <circle cx="8" cy="8" r="7" stroke="#4D90FE" stroke-opacity=".8" stroke-width="2"/>
      <circle cx="8" cy="8" r="4.267" fill="#4D90FE" fill-opacity=".8"/>
    </g>
    <rect width="30" height="6" x="166" y="9" fill="#000" fill-opacity=".08" rx="3"/>
    <rect width="30" height="6" x="166" y="21" fill="#000" fill-opacity=".08" rx="3"/>
    <g transform="translate(0 43)">
      <rect width="208" height="36" fill="#000" fill-opacity=".04" rx="2"/>
      <g transform="translate(12 10)">
        <circle cx="8" cy="8" r="8" fill="#00BFA5" fill-opacity=".8"/>
        <path fill="#F3F3F3" d="M7.3,4 L8.788,4 L12.088,12.568 L10.684,12.568 L9.88,10.36 L6.196,10.36 L5.392,12.568 L4,12.568 L7.3,4 Z M6.592,9.28 L9.484,9.28 L8.068,5.404 L8.02,5.404 L6.592,9.28 Z"/>
        <g transform="translate(28)">
          <circle cx="8" cy="8" r="8" fill="#4D90FE" fill-opacity=".8"/>
          <path fill="#F3F3F3" d="M5,4 L8.912,4 C9.752,4 10.4,4.192 10.88,4.6 C11.336,4.984 11.564,5.5 11.564,6.16 C11.564,6.64 11.444,7.048 11.204,7.384 C10.964,7.696 10.64,7.936 10.208,8.092 C10.772,8.2 11.204,8.428 11.492,8.776 C11.78,9.124 11.924,9.592 11.924,10.168 C11.924,11.032 11.624,11.656 11.036,12.064 C10.532,12.4 9.824,12.568 8.912,12.568 L5,12.568 L5,4 Z M6.308,5.08 L6.308,7.636 L8.564,7.636 C9.164,7.636 9.596,7.528 9.86,7.324 C10.124,7.108 10.256,6.772 10.256,6.316 C10.256,5.884 10.124,5.572 9.86,5.38 C9.596,5.176 9.164,5.08 8.588,5.08 L6.308,5.08 Z M6.308,8.704 L6.308,11.488 L8.732,11.488 C9.284,11.488 9.716,11.392 10.028,11.224 C10.412,10.996 10.616,10.636 10.616,10.144 C10.616,9.64 10.46,9.268 10.16,9.04 C9.86,8.812 9.392,8.704 8.768,8.704 L6.308,8.704 Z"/>
        </g>
        <g transform="translate(56)">
          <circle cx="8" cy="8" r="8" fill="#FFB100" fill-opacity=".8"/>
          <path fill="#F3F3F3" d="M8.08,4 C9.076,4 9.904,4.252 10.552,4.78 C11.176,5.284 11.56,5.98 11.692,6.844 L10.42,6.844 C10.276,6.268 10,5.836 9.592,5.56 C9.184,5.284 8.68,5.152 8.056,5.152 C7.132,5.152 6.436,5.464 5.968,6.1 C5.524,6.676 5.308,7.468 5.308,8.464 C5.308,9.496 5.524,10.288 5.956,10.852 C6.412,11.452 7.12,11.752 8.08,11.752 C8.704,11.752 9.232,11.596 9.64,11.284 C10.072,10.948 10.372,10.444 10.54,9.772 L11.812,9.772 C11.62,10.768 11.176,11.548 10.468,12.112 C9.808,12.64 9.016,12.904 8.092,12.904 C6.688,12.904 5.632,12.448 4.924,11.56 C4.3,10.792 4,9.76 4,8.464 C4,7.192 4.312,6.16 4.96,5.356 C5.68,4.444 6.712,4 8.08,4 Z"/>
        </g>
      </g>
      <circle cx="104" cy="18" r="6" stroke="#00BFA5" stroke-opacity=".8" stroke-width="4"/>
      <g transform="translate(124 10)">
        <circle cx="8" cy="8" r="7" stroke="#4D90FE" stroke-opacity=".8" stroke-width="2"/>
        <circle cx="8" cy="8" r="4.267" fill="#4D90FE" fill-opacity=".8"/>
      </g>
      <rect width="30" height="6" x="166" y="9" fill="#000" fill-opacity=".08" rx="3"/>
      <rect width="30" height="6" x="166" y="21" fill="#000" fill-opacity=".08" rx="3"/>
    </g>
    <g transform="translate(0 86)">
      <rect width="208" height="36" fill="#000" fill-opacity=".04" rx="2"/>
      <g transform="translate(12 10)">
        <circle cx="8" cy="8" r="8" fill="#00BFA5" fill-opacity=".8"/>
        <path fill="#F3F3F3" d="M7.3,4 L8.788,4 L12.088,12.568 L10.684,12.568 L9.88,10.36 L6.196,10.36 L5.392,12.568 L4,12.568 L7.3,4 Z M6.592,9.28 L9.484,9.28 L8.068,5.404 L8.02,5.404 L6.592,9.28 Z"/>
        <g transform="translate(28)">
          <circle cx="8" cy="8" r="8" fill="#4D90FE" fill-opacity=".8"/>
          <path fill="#F3F3F3" d="M5,4 L8.912,4 C9.752,4 10.4,4.192 10.88,4.6 C11.336,4.984 11.564,5.5 11.564,6.16 C11.564,6.64 11.444,7.048 11.204,7.384 C10.964,7.696 10.64,7.936 10.208,8.092 C10.772,8.2 11.204,8.428 11.492,8.776 C11.78,9.124 11.924,9.592 11.924,10.168 C11.924,11.032 11.624,11.656 11.036,12.064 C10.532,12.4 9.824,12.568 8.912,12.568 L5,12.568 L5,4 Z M6.308,5.08 L6.308,7.636 L8.564,7.636 C9.164,7.636 9.596,7.528 9.86,7.324 C10.124,7.108 10.256,6.772 10.256,6.316 C10.256,5.884 10.124,5.572 9.86,5.38 C9.596,5.176 9.164,5.08 8.588,5.08 L6.308,5.08 Z M6.308,8.704 L6.308,11.488 L8.732,11.488 C9.284,11.488 9.716,11.392 10.028,11.224 C10.412,10.996 10.616,10.636 10.616,10.144 C10.616,9.64 10.46,9.268 10.16,9.04 C9.86,8.812 9.392,8.704 8.768,8.704 L6.308,8.704 Z"/>
        </g>
        <g transform="translate(56)">
          <circle cx="8" cy="8" r="8" fill="#FFB100" fill-opacity=".8"/>
          <path fill="#F3F3F3" d="M8.08,4 C9.076,4 9.904,4.252 10.552,4.78 C11.176,5.284 11.56,5.98 11.692,6.844 L10.42,6.844 C10.276,6.268 10,5.836 9.592,5.56 C9.184,5.284 8.68,5.152 8.056,5.152 C7.132,5.152 6.436,5.464 5.968,6.1 C5.524,6.676 5.308,7.468 5.308,8.464 C5.308,9.496 5.524,10.288 5.956,10.852 C6.412,11.452 7.12,11.752 8.08,11.752 C8.704,11.752 9.232,11.596 9.64,11.284 C10.072,10.948 10.372,10.444 10.54,9.772 L11.812,9.772 C11.62,10.768 11.176,11.548 10.468,12.112 C9.808,12.64 9.016,12.904 8.092,12.904 C6.688,12.904 5.632,12.448 4.924,11.56 C4.3,10.792 4,9.76 4,8.464 C4,7.192 4.312,6.16 4.96,5.356 C5.68,4.444 6.712,4 8.08,4 Z"/>
        </g>
      </g>
      <circle cx="104" cy="18" r="6" stroke="#F44336" stroke-opacity=".8" stroke-width="4"/>
      <g transform="translate(124 10)">
        <circle cx="8" cy="8" r="7" stroke="#4D90FE" stroke-opacity=".8" stroke-width="2"/>
        <circle cx="8" cy="8" r="4.267" fill="#4D90FE" fill-opacity=".8"/>
      </g>
      <rect width="30" height="6" x="166" y="9" fill="#000" fill-opacity=".08" rx="3"/>
      <rect width="30" height="6" x="166" y="21" fill="#000" fill-opacity=".08" rx="3"/>
    </g>
  </g>
</svg>
