<?xml version="1.0" encoding="UTF-8"?>
<svg width="266px" height="177px" viewBox="0 0 266 177" version="1.1" xmlns="http://www.w3.org/2000/svg" xmlns:xlink="http://www.w3.org/1999/xlink">
    <!-- Generator: Sketch 56.2 (81672) - https://sketch.com -->
    <title>default-无权限</title>
    <desc>Created with Sketch.</desc>
    <g id="空界面" stroke="none" stroke-width="1" fill="none" fill-rule="evenodd">
        <g id="代码管理-无权限" transform="translate(-524.000000, -271.000000)">
            <g id="Group-11" transform="translate(478.000000, 257.000000)">
                <g id="default-无权限" transform="translate(46.000000, 14.000000)">
                    <g id="management">
                        <path d="M12.8235294,0 L205.176471,0 C213.72549,0 218,4.28571437 218,12.8571431 L218,149.142857 C218,157.714286 213.72549,162 205.176471,162 L12.8235294,162 C4.27450979,162 0,157.714286 0,149.142857 L0,12.8571431 C0,4.28571456 4.27450979,0 12.8235294,0 Z" id="路径" fill="#DEE0ED"></path>
                        <path d="M85.116279,10 L184.883721,10 C188.294574,10 190,11.6666667 190,15 L190,15 C190,18.3333334 188.294574,20 184.883721,20 L85.116279,20 C81.7054263,20 80,18.3333334 80,15 L80,15 C80,11.6666669 81.7054263,10 85.116279,10 Z" id="路径" fill="#CFD5F1"></path>
                        <path d="M18,10 L18,10 C21.3333331,10 23,11.6666667 23,15 L23,15 C23,18.3333334 21.3333333,20 18,20 L18,20 C14.6666666,20 13,18.3333334 13,15 L13,15 C13,11.6666669 14.6666666,10 18,10 Z" id="路径" fill="#F9FAFF"></path>
                        <path d="M36,10 L36,10 C39.3333334,10 41,11.6666667 41,15 L41,15 C41,18.3333334 39.3333334,20 36,20 L36,20 C32.6666669,20 31,18.3333334 31,15 L31,15 C31,11.6666669 32.6666667,10 36,10 Z" id="路径" fill="#F9FAFF"></path>
                        <path d="M54,10 L54,10 C57.3333331,10 59,11.6666667 59,15 L59,15 C59,18.3333334 57.3333333,20 54,20 L54,20 C50.6666666,20 49,18.3333334 49,15 L49,15 C49,11.6666669 50.6666666,10 54,10 Z" id="路径" fill="#F9FAFF"></path>
                        <path d="M0,31 L218,31 L218,149.156863 C218,156.250128 212.258906,162 205.176471,162 L12.8235294,162 C5.74109399,162 0,156.250128 0,149.156863 L0,31 Z" id="路径" fill="#F2F4FD"></path>
                        <path d="M18,57.5 C18,61.6085542 20.1918875,65.4050149 23.7499999,67.4592921 C27.3081123,69.5135693 31.6918877,69.5135693 35.2500001,67.4592921 C38.8081125,65.4050149 41,61.6085542 41,57.5 C41,51.1487253 35.8512746,46 29.5,46 C23.1487254,46 18,51.1487253 18,57.5 L18,57.5 Z" id="路径" fill="#DEE0ED"></path>
                        <path d="M18,96.5 C18,100.608554 20.1918875,104.405015 23.7499999,106.459292 C27.3081123,108.513569 31.6918877,108.513569 35.2500001,106.459292 C38.8081125,104.405015 41,100.608554 41,96.5 C41,90.1487253 35.8512746,85 29.5,85 C23.1487254,85 18,90.1487253 18,96.5 L18,96.5 Z" id="路径" fill="#DEE0ED"></path>
                        <path d="M18,134.5 C18,138.608554 20.1918875,142.405015 23.7499999,144.459292 C27.3081123,146.513569 31.6918877,146.513569 35.2500001,144.459292 C38.8081125,142.405015 41,138.608554 41,134.5 C41,128.148725 35.8512746,123 29.5,123 C23.1487254,123 18,128.148725 18,134.5 L18,134.5 Z" id="路径" fill="#DEE0ED"></path>
                        <path d="M56.5757578,50 L136.424242,50 C138.141414,50 139,50.8333333 139,52.5 L139,52.5 C139,54.1666667 138.141414,55 136.424242,55 L56.5757578,55 C54.8585861,55 54,54.1666667 54,52.5 L54,52.5 C54,50.8333333 54.8585859,50 56.5757578,50 Z" id="路径" fill="#E8EAF4"></path>
                        <path d="M56.5757578,89 L136.424242,89 C138.141414,89 139,89.8333333 139,91.5 L139,91.5 C139,93.1666664 138.141414,94 136.424242,94 L56.5757578,94 C54.8585861,94 54,93.1666666 54,91.5 L54,91.5 C54,89.8333333 54.8585859,89 56.5757578,89 Z" id="路径" fill="#E8EAF4"></path>
                        <path d="M56.5757578,127 L136.424242,127 C138.141414,127 139,127.833333 139,129.5 L139,129.5 C139,131.166667 138.141414,132 136.424242,132 L56.5757578,132 C54.8585861,132 54,131.166667 54,129.5 L54,129.5 C54,127.833334 54.8585859,127 56.5757578,127 Z" id="路径" fill="#E8EAF4"></path>
                        <path d="M56.5405407,60 L98.4594593,60 C100.153153,60 101,60.8333333 101,62.5 L101,62.5 C101,64.1666667 100.153153,65 98.4594593,65 L56.5405407,65 C54.8468471,65 54,64.1666667 54,62.5 L54,62.5 C54,60.8333333 54.8468469,60 56.5405407,60 Z" id="路径" fill="#E8EAF4"></path>
                        <path d="M56.5405407,99 L98.4594593,99 C100.153153,99 101,99.8333333 101,101.5 L101,101.5 C101,103.166667 100.153153,104 98.4594593,104 L56.5405407,104 C54.8468471,104 54,103.166667 54,101.5 L54,101.5 C54,99.8333333 54.8468469,99 56.5405407,99 Z" id="路径" fill="#E8EAF4"></path>
                        <path d="M56.5405407,137 L98.4594593,137 C100.153153,137 101,137.833333 101,139.5 L101,139.5 C101,141.166667 100.153153,142 98.4594593,142 L56.5405407,142 C54.8468471,142 54,141.166667 54,139.5 L54,139.5 C54,137.833334 54.8468469,137 56.5405407,137 Z" id="路径" fill="#E8EAF4"></path>
                        <path d="M114.538462,58 L142.461539,58 C144.153846,58 145,58.8571429 145,60.5714288 L145,73.4285715 C145,75.1428572 144.153846,76 142.461539,76 L114.538462,76 C112.846154,76 112,75.1428572 112,73.4285715 L112,60.5714288 C112,58.8571431 112.846154,58 114.538462,58 L114.538462,58 Z" id="路径" fill="#F2F4FD"></path>
                        <path d="M157.5,59 L172.5,59 C174.166667,59 175,59.8333333 175,61.5 L175,61.5 C175,63.1666667 174.166667,64 172.5,64 L157.5,64 C155.833333,64 155,63.1666667 155,61.5 L155,61.5 C155,59.8333333 155.833333,59 157.5,59 Z" id="路径" fill="#F2F4FD"></path>
                        <path d="M186.5,59 L201.5,59 C203.166667,59 204,59.8333333 204,61.5 L204,61.5 C204,63.1666667 203.166667,64 201.5,64 L186.5,64 C184.833333,64 184,63.1666667 184,61.5 L184,61.5 C184,59.8333333 184.833333,59 186.5,59 Z" id="路径" fill="#F2F4FD"></path>
                        <path d="M157.5,69 L172.5,69 C174.166667,69 175,69.8333334 175,71.5 L175,71.5 C175,73.1666667 174.166667,74 172.5,74 L157.5,74 C155.833333,74 155,73.1666667 155,71.5 L155,71.5 C155,69.8333336 155.833333,69 157.5,69 Z" id="路径" fill="#F2F4FD"></path>
                        <path d="M186.5,69 L201.5,69 C203.166667,69 204,69.8333334 204,71.5 L204,71.5 C204,73.1666667 203.166667,74 201.5,74 L186.5,74 C184.833333,74 184,73.1666667 184,71.5 L184,71.5 C184,69.8333336 184.833333,69 186.5,69 Z" id="路径" fill="#F2F4FD"></path>
                    </g>
                    <g id="编组-6" transform="translate(113.000000, 80.000000)">
                        <polygon id="路径-9" fill="#7181D7" fill-rule="nonzero" points="37.1204249 2 141 2 116.34202 19 13 19"></polygon>
                        <path d="M116,97 L139.136454,82.105859 C140.27967,81.369912 140.970779,80.103649 140.971294,78.744031 L141,3 L141,3 L116,19.205817 L116,97 Z" id="路径-7" fill="#6776C4" fill-rule="nonzero"></path>
                        <path d="M13,19.210429 L37,2 L37,82.726477 L19.0446458,93.405067 C17.1459246,94.534294 14.6912878,93.910495 13.5620611,92.011774 C13.1941771,91.393201 13,90.68683 13,89.967128 L13,19.210429 L13,19.210429 Z" id="路径-8" fill="#5665B2" fill-rule="nonzero"></path>
                        <path d="M17,97 L116,97 L116,97 L116,19 L13,19 L13,93 C13,95.209139 14.790861,97 17,97 Z" id="路径-3" fill="#8694DF" fill-rule="nonzero"></path>
                        <g id="编组-7" transform="translate(45.000000, 48.000000)">
                            <circle id="椭圆形" fill="#292E76" fill-rule="nonzero" cx="20" cy="20" r="20"></circle>
                            <g id="baseline-security-24px" transform="translate(5.000000, 5.000000)">
                                <path d="M15,1.25 L3.75,6.25 L3.75,13.75 C3.75,20.6875 8.55,27.175 15,28.75 C21.45,27.175 26.25,20.6875 26.25,13.75 L26.25,6.25 L15,1.25 Z M15,14.9875 L23.75,14.9875 C23.0875,20.1375 19.65,24.725 15,26.1625 L15,15 L6.25,15 L6.25,7.875 L15,3.9875 L15,14.9875 Z" id="形状" fill="#FFBA1C" fill-rule="nonzero"></path>
                                <polygon id="路径" points="0 0 30 0 30 30 0 30"></polygon>
                            </g>
                        </g>
                        <path d="M37,2 L43.3479926,0.1583947 C43.7101628,0.0533262 44.0853712,0 44.4624741,0 L140.197883,0 C140.750168,0 141.197883,0.4477153 141.197883,1 C141.197883,1.465862 140.876196,1.8700115 140.422206,1.9745149 L140.311492,2 L140.311492,2 L37,2 Z" id="路径-10" fill="#94A2EB" fill-rule="nonzero"></path>
                        <path d="M116,19.01644 L126.59322,48.593645 C127.3381,50.673416 129.627933,51.755559 131.707704,51.010679 C132.153217,50.851116 132.566882,50.613763 132.92946,50.309659 L141,43.540673 L141,43.540673 L141,3 L116,19.01644 Z" id="路径-13" fill="#5665B2" fill-rule="nonzero"></path>
                        <path d="M116,19.194538 L128.224494,39.967562 C129.344917,41.871491 131.796639,42.506649 133.700569,41.386226 C133.880063,41.280597 134.051033,41.161112 134.21192,41.028858 L151.332783,26.955091 C152.864997,25.695573 153.242814,23.503451 152.220638,21.803679 L140.311492,2 L140.311492,2 L116,19.194538 Z" id="路径-11" fill="#94A2EB" fill-rule="nonzero"></path>
                        <path d="M2.50939444,20.219325 L19.1479625,17.026738 C19.6966301,16.921461 20.2171599,16.702416 20.6760173,16.383716 L36.1407314,5.64268603 C37.0479463,5.01257863 37.2725868,3.76633293 36.6424798,2.85911793 C36.2272215,2.26123763 35.5199083,1.93619363 34.7957646,2.01046463 L26.1630496,2.89586913 L26.1630496,2.89586913 L2.50939444,20.219325 Z" id="路径-11" fill="#94A2EB" fill-rule="nonzero" transform="translate(19.754697, 11.109663) rotate(180.000000) translate(-19.754697, -11.109663) "></path>
                        <path d="M116,19 L108.913514,56.738218 C108.558347,58.629613 106.906677,60 104.982225,60 L13,60 L13,60 L13,19 L116,19 Z" id="路径-12" fill-opacity="0.246284965" fill="#05135C" fill-rule="nonzero"></path>
                        <path d="M13.7331385,19 L0.94883803,44.189718 C-0.05095337,46.15967 0.73551748,48.567123 2.70546984,49.566914 C3.26644562,49.851621 3.88666426,50 4.5157523,50 L100.473466,50 C102.047921,50 103.475928,49.076383 104.121619,47.64042 L117,19 L117,19 L13.7331385,19 Z" id="路径-10" fill="#94A2EB" fill-rule="nonzero"></path>
                    </g>
                </g>
            </g>
        </g>
    </g>
</svg>