<?xml version="1.0" encoding="UTF-8"?>
<svg width="193px" height="141px" viewBox="0 0 193 141" version="1.1" xmlns="http://www.w3.org/2000/svg" xmlns:xlink="http://www.w3.org/1999/xlink">
    <title>知识库-项目</title>
    <defs>
        <path d="M15.170143,3.49353365 L11.8674517,3.49353365 C11.5356383,2.57270404 10.666509,1.90575916 9.63939222,1.90575916 C8.61227541,1.90575916 7.74314612,2.57270404 7.41133275,3.49353365 L4.10864144,3.49353365 C3.23951215,3.49353365 2.52837036,4.20823114 2.52837036,5.08170608 L2.52837036,16.1989131 C2.52837036,17.072388 3.23951215,17.7870855 4.10864144,17.7870855 L15.170143,17.7870855 C16.0392723,17.7870855 16.7504141,17.072388 16.7504141,16.1989131 L16.7504141,5.08170608 C16.7504141,4.20823114 16.0392723,3.49353365 15.170143,3.49353365 L15.170143,3.49353365 Z M9.63939222,3.49353365 C10.0737589,3.49353365 10.4293298,3.8508824 10.4293298,4.28781884 C10.4293298,4.72475528 10.0737589,5.08170608 9.63939222,5.08170608 C9.20462959,5.08170608 8.8490587,4.72475528 8.8490587,4.28781884 C8.8490587,3.8508824 9.20462959,3.49353365 9.63939222,3.49353365 L9.63939222,3.49353365 Z M5.68891251,13.0225682 L11.2196633,13.0225682 L11.2196633,14.6107407 L5.68891251,14.6107407 L5.68891251,13.0225682 Z M5.68891251,9.84622337 L13.5902679,9.84622337 L13.5902679,11.4343958 L5.68891251,11.4343958 L5.68891251,9.84622337 Z M5.68891251,6.66987851 L13.5902679,6.66987851 L13.5902679,8.25805094 L5.68891251,8.25805094 L5.68891251,6.66987851 Z" id="path-1"></path>
    </defs>
    <g id="设置" stroke="none" stroke-width="1" fill="none" fill-rule="evenodd">
        <g id="设置-仓库配置（自定义）" transform="translate(-346.000000, -170.000000)">
            <g id="编组-4" transform="translate(274.000000, 116.000000)">
                <g id="Group-3">
                    <g id="编组-5" transform="translate(72.000000, 54.000000)">
                        <g id="知识库-项目">
                            <g id="编组-3">
                                <g id="编组-9" transform="translate(0.000000, 26.250000)">
                                    <rect id="矩形" fill="#DEE0ED" x="0" y="0" width="34.8258706" height="87.5" rx="2"></rect>
                                    <rect id="矩形" fill="#F9FAFF" x="0" y="12.25" width="34.8258706" height="5.25"></rect>
                                    <rect id="矩形" fill="#F9FAFF" x="0" y="22.75" width="34.8258706" height="5.25"></rect>
                                    <rect id="矩形" fill="#F9FAFF" x="0" y="70" width="34.8258706" height="5.25"></rect>
                                </g>
                                <g id="编组-8" transform="translate(39.896517, 0.000000)">
                                    <rect id="矩形" fill="#CFD5F1" x="0" y="0" width="43.5323383" height="113.75" rx="2"></rect>
                                    <rect id="矩形" fill="#F9FAFF" x="0" y="14" width="43.5323383" height="7"></rect>
                                    <rect id="矩形" fill="#F9FAFF" x="0" y="26.25" width="43.5323383" height="7"></rect>
                                    <rect id="矩形" fill="#F9FAFF" x="0" y="92.75" width="43.5323383" height="7"></rect>
                                </g>
                                <g id="编组-7" transform="translate(88.499502, 17.500000)">
                                    <rect id="矩形" fill="#F2F4FD" x="0" y="0" width="26.119403" height="96.25" rx="2"></rect>
                                    <rect id="矩形" fill="#DEE0ED" x="0" y="12.25" width="26.119403" height="5.25"></rect>
                                    <rect id="矩形" fill="#DEE0ED" x="0" y="22.75" width="26.119403" height="5.25"></rect>
                                    <rect id="矩形" fill="#DEE0ED" x="0" y="78.75" width="26.119403" height="5.25"></rect>
                                </g>
                                <g id="编组-6" transform="translate(143.259701, 70.000000) rotate(-10.000000) translate(-143.259701, -70.000000) translate(130.200000, 35.000000)">
                                    <path d="M2.00767716,0.00415048169 L24.0035302,0.049622626 C25.1051045,0.0518999164 25.9974471,0.944511314 25.9993925,2.04608624 L26.1158573,67.9923217 C26.117808,69.0968895 25.2239603,69.9938999 24.1193925,69.9958507 C24.116837,69.9958552 24.1142814,69.9958548 24.1117258,69.9958495 L2.11587275,69.9503774 C1.01429845,69.9481001 0.121955911,69.0554887 0.120010467,67.9539138 L0.00354567382,2.00767832 C0.00159494445,0.903110539 0.89544267,0.00610005626 2.00001045,0.0041493269 C2.00256602,0.00414481362 2.00512159,0.00414519855 2.00767716,0.00415048169 Z" id="矩形" fill="#CFD5F1"></path>
                                    <ellipse id="椭圆形" fill="#F9FAFF" cx="13.0597015" cy="54.25" rx="5.2238806" ry="5.25"></ellipse>
                                    <path d="M13.0313099,10.5105157 C15.9039107,10.5163298 18.2309891,12.8439206 18.2361708,15.7165226 L18.2742102,36.8045088 C18.2793664,39.6629367 15.9663326,41.9843304 13.1079046,41.9894865 C13.1013007,41.9894984 13.0946969,41.9894977 13.088093,41.9894843 C10.2154923,41.9836702 7.88841386,39.6560794 7.88323214,36.7834774 L7.84519274,15.6954912 C7.84003659,12.8370633 10.1530704,10.5156696 13.0114984,10.5105135 C13.0181023,10.5105016 13.0247061,10.5105023 13.0313099,10.5105157 Z" id="矩形" fill="#F9FAFF"></path>
                                </g>
                            </g>
                            <g id="编组-6" transform="translate(77.574627, 68.600000)">
                                <polygon id="路径-9" fill="#7181D7" points="29.2613346 1.76649215 105.024615 1.76649215 87.0406232 14.2272251 11.6694017 14.2272251"></polygon>
                                <path d="M86.791175,71.4 L103.176693,60.7990472 C104.315527,60.0622548 105.003385,58.7985345 105.003896,57.4421402 L105.024615,2.49947644 L105.024615,2.49947644 L86.791175,14.3780854 L86.791175,71.4 Z" id="路径-7" fill="#6776C4"></path>
                                <path d="M11.6694017,14.3814661 L29.1735042,1.76649215 L29.1735042,60.9377319 L17.7215847,67.7825874 C15.8253454,68.9159768 13.3693461,68.2975647 12.2359567,66.4013254 C11.8651883,65.7810042 11.6694017,65.0718231 11.6694017,64.3491423 L11.6694017,14.3814661 L11.6694017,14.3814661 Z" id="路径-8" fill="#5665B2"></path>
                                <path d="M15.6694017,71.4 L86.791175,71.4 L86.791175,71.4 L86.791175,14.2272251 L11.6694017,14.2272251 L11.6694017,67.4 C11.6694017,69.609139 13.4602627,71.4 15.6694017,71.4 Z" id="路径-3" fill="#8694DF"></path>
                                <g id="编组-7" transform="translate(35.008205, 35.483770)">
                                    <ellipse id="椭圆形" fill="#292E76" cx="14.5867521" cy="14.6596859" rx="14.5867521" ry="14.6596859"></ellipse>
                                    <g id="编组-13" transform="translate(5.105363, 5.130890)">
                                        <mask id="mask-2" fill="white">
                                            <use xlink:href="#path-1"></use>
                                        </mask>
                                        <use id="Fill-17" fill="#FFBA1C" xlink:href="#path-1"></use>
                                        <rect id="矩形" x="0" y="0" width="18.9627777" height="19.0575916"></rect>
                                    </g>
                                </g>
                                <path d="M29.1735042,1.76649215 L33.6531486,0.460412266 C34.0168985,0.354357777 34.3938718,0.30052356 34.772767,0.30052356 L104.355102,0.30052356 C104.765194,0.30052356 105.097639,0.632968848 105.097639,1.04306089 C105.097639,1.38867736 104.859184,1.68859451 104.522461,1.76649215 L104.522461,1.76649215 L104.522461,1.76649215 L29.1735042,1.76649215 Z" id="路径-10" fill="#94A2EB"></path>
                                <path d="M86.791175,14.2392757 L93.9933463,34.4489184 C94.7349392,36.5298641 97.0230588,37.6156241 99.1040045,36.8740312 C99.5548802,36.7133513 99.9732564,36.4730514 100.339235,36.1645604 L105.024615,32.2151533 L105.024615,32.2151533 L105.024615,2.49947644 L86.791175,14.2392757 Z" id="路径-13" fill="#5665B2"></path>
                                <path d="M86.791175,14.3698183 L95.062361,28.4952809 C96.1786357,30.4016455 98.628969,31.0421399 100.535334,29.9258652 C100.720387,29.8175067 100.896428,29.6944422 101.061752,29.5578617 L111.856643,20.63983 C113.380334,19.3810561 113.756282,17.1981576 112.74147,15.5021913 L104.522461,1.76649215 L104.522461,1.76649215 L86.791175,14.3698183 Z" id="路径-11" fill="#94A2EB"></path>
                                <path d="M0,15.6931937 L11.9071533,13.3970411 C12.4575945,13.290895 12.9795783,13.0702352 13.4392516,12.7493723 L22.8391939,6.18799046 C23.7449327,5.55576339 23.9666577,4.30899574 23.3344306,3.40325697 C22.9185259,2.80742511 22.2121799,2.48404228 21.4893787,2.55854622 L17.2515002,2.99537263 L17.2515002,2.99537263 L0,15.6931937 Z" id="路径-11" fill="#94A2EB" transform="translate(14.586752, 8.729843) scale(-1, -1) translate(-14.586752, -8.729843) "></path>
                                <path d="M86.791175,14.2272251 L81.78613,41.0142505 C81.4324211,42.9073022 79.7799889,44.2795812 77.8541761,44.2795812 L11.6694017,44.2795812 L11.6694017,44.2795812 L11.6694017,14.2272251 L86.791175,14.2272251 Z" id="路径-12" fill-opacity="0.246284965" fill="#05135C"></path>
                                <path d="M12.2041072,14.2272251 L3.65988265,31.1466284 C2.66405259,33.1185862 3.45536048,35.5244536 5.4273183,36.5202837 C5.98643993,36.8026377 6.60405701,36.9497382 7.23042812,36.9497382 L74.7615594,36.9497382 C76.3387143,36.9497382 77.7686426,36.0229886 78.4127616,34.5833607 L87.5205126,14.2272251 L87.5205126,14.2272251 L12.2041072,14.2272251 Z" id="路径-10" fill="#94A2EB"></path>
                            </g>
                        </g>
                    </g>
                </g>
            </g>
        </g>
    </g>
</svg>