<?xml version="1.0" encoding="UTF-8" standalone="no"?>
<svg width="200px" height="240px" viewBox="0 0 200 240" version="1.1" xmlns="http://www.w3.org/2000/svg" xmlns:xlink="http://www.w3.org/1999/xlink">
    <!-- Generator: Sketch 49 (51002) - http://www.bohemiancoding.com/sketch -->
    <title>Group 10</title>
    <desc>Created with Sketch.</desc>
    <defs>
        <path d="M46,170 C46.9477256,172.72071 47.6143922,174.207889 48,174.461538 C48.3856078,174.715188 49.0522744,174.343393 50,173.346154 C50.3388344,175.320021 50.6721677,176.306707 51,176.306213 C51.5311574,176.305413 52.2894637,173.325381 52.5,173.346154 C52.663312,173.362268 53.2111303,176.089641 54,176.306213 C54.3945879,176.414541 54.9804748,174.462846 56,174.461538 C56.4048399,174.461019 56.0963439,176.061185 57,176.306213 C57.3848641,176.410569 58.0515308,176.081674 59,175.319527 L59,199 L46,193.423077 L46,170 Z" id="path-1"></path>
        <filter x="-7.7%" y="-6.9%" width="130.8%" height="113.8%" filterUnits="objectBoundingBox" id="filter-2">
            <feOffset dx="1" dy="0" in="SourceAlpha" result="shadowOffsetOuter1"></feOffset>
            <feGaussianBlur stdDeviation="0.5" in="shadowOffsetOuter1" result="shadowBlurOuter1"></feGaussianBlur>
            <feComposite in="shadowBlurOuter1" in2="SourceAlpha" operator="out" result="shadowBlurOuter1"></feComposite>
            <feColorMatrix values="0 0 0 0 0   0 0 0 0 0   0 0 0 0 0  0 0 0 0.26 0" type="matrix" in="shadowBlurOuter1"></feColorMatrix>
        </filter>
        <path d="M125,170 L125,192.307692 L112,199 L112,175.319527 C112.948469,176.081674 113.615136,176.410569 114,176.306213 C114.903656,176.061185 114.59516,174.461019 115,174.461538 C116.019525,174.462846 116.605412,176.414541 117,176.306213 C117.78887,176.089641 118.336688,173.362268 118.5,173.346154 C118.710536,173.325381 119.468843,176.305413 120,176.306213 C120.327832,176.306707 120.661166,175.320021 121,173.346154 C121.947726,174.343393 122.614392,174.715188 123,174.461538 C123.385608,174.207889 124.052274,172.72071 125,170 Z" id="path-3"></path>
        <filter x="-7.7%" y="-6.9%" width="130.8%" height="113.8%" filterUnits="objectBoundingBox" id="filter-4">
            <feOffset dx="1" dy="0" in="SourceAlpha" result="shadowOffsetOuter1"></feOffset>
            <feGaussianBlur stdDeviation="0.5" in="shadowOffsetOuter1" result="shadowBlurOuter1"></feGaussianBlur>
            <feComposite in="shadowBlurOuter1" in2="SourceAlpha" operator="out" result="shadowBlurOuter1"></feComposite>
            <feColorMatrix values="0 0 0 0 0   0 0 0 0 0   0 0 0 0 0  0 0 0 0.26 0" type="matrix" in="shadowBlurOuter1"></feColorMatrix>
        </filter>
        <linearGradient x1="50%" y1="0%" x2="50%" y2="100%" id="linearGradient-5">
            <stop stop-color="#838698" offset="0%"></stop>
            <stop stop-color="#FFFFFF" stop-opacity="0.2" offset="100%"></stop>
        </linearGradient>
    </defs>
    <g id="报表" stroke="none" stroke-width="1" fill="none" fill-rule="evenodd">
        <g id="无应用－空" transform="translate(-567.000000, -330.000000)">
            <g id="Group-11" transform="translate(567.000000, 330.000000)">
                <g id="Group-10">
                    <path d="M200,140 C200,195.229 155.229,240 100,240 C44.771,240 0,195.229 0,140 C0,84.771 44.771,40 100,40 C155.229,40 200,84.771 200,140" id="Fill-1" fill="#5B90F5"></path>
                    <g id="Group-9" transform="translate(15.000000, 0.000000)">
                        <g id="Group-3" transform="translate(0.000000, 97.000000)">
                            <path d="M26.4574969,17.4348272 L85.2787897,2.56790709 L85.2787897,114.393002 L27.6193805,87.7809672 C26.9110797,87.4540591 26.4574969,86.7451503 26.4574969,85.9650484 L26.4574969,17.4348272 Z" id="Rectangle-3" fill="#9DBFFF"></path>
                            <path d="M141.988182,17.0531999 L84.6768061,2.56790709 L84.6768061,114.393002 L142.336215,87.7809672 C143.044516,87.4540591 143.498099,86.7451503 143.498099,85.9650484 L143.498099,18.9922251 C143.498099,18.076416 142.87607,17.2776113 141.988182,17.0531999 Z" id="Combined-Shape" fill="#B5CFFF"></path>
                            <path d="M27.5054131,17.8148408 L82.1396148,37.6272436 C83.1780147,38.0038062 83.7145398,39.15086 83.3379772,40.1892599 C83.225703,40.4988645 83.0387112,40.7759526 82.7936073,40.9959176 L60.9569432,60.5929238 C60.4102996,61.0835014 59.6387371,61.2349733 58.9471954,60.9874742 L2.05813267,40.6271781 C1.01816118,40.2549777 0.476825695,39.1101863 0.849026018,38.0702148 C0.975210547,37.7176404 1.19784606,37.4075744 1.49158981,37.1753119 L25.583115,18.126199 C26.1266745,17.6964077 26.853976,17.5786054 27.5054131,17.8148408 Z" id="Rectangle-7" fill="#B0CCFF"></path>
                            <path d="M142.450183,17.8148408 L87.815981,37.6272436 C86.7775811,38.0038062 86.2410559,39.15086 86.6176185,40.1892599 C86.7298927,40.4988645 86.9168846,40.7759526 87.1619884,40.9959176 L108.998653,60.5929238 C109.545296,61.0835014 110.316859,61.2349733 111.0084,60.9874742 L167.897463,40.6271781 C168.937435,40.2549777 169.47877,39.1101863 169.10657,38.0702148 C168.980385,37.7176404 168.75775,37.4075744 168.464006,37.1753119 L144.372481,18.126199 C143.828921,17.6964077 143.10162,17.5786054 142.450183,17.8148408 Z" id="Rectangle-7" fill="#B1CCFF"></path>
                            <path d="M108.233492,0.0212383983 L84.6768061,2.56790709 L142.501215,17.3452561 C142.732998,17.4044896 142.973529,17.4216577 143.211375,17.3959446 L155.775061,16.0377084 C156.873231,15.9189872 157.667232,14.9325014 157.548511,13.8343306 C157.458835,13.0048305 156.863648,12.3181482 156.055293,12.1115687 L108.943652,0.0719269216 C108.711868,0.0126934105 108.471338,-0.00447473368 108.233492,0.0212383983 Z" id="Rectangle-4" fill="#ADCAFF"></path>
                            <path d="M61.7221042,0.0212383983 L85.2787897,2.56790709 L27.4543806,17.3452561 C27.2225973,17.4044896 26.9820668,17.4216577 26.7442203,17.3959446 L14.1805351,16.0377084 C13.0823643,15.9189872 12.2883635,14.9325014 12.4070847,13.8343306 C12.4967604,13.0048305 13.0919477,12.3181482 13.9003023,12.1115687 L61.011944,0.0719269216 C61.2437273,0.0126934105 61.4842578,-0.00447473368 61.7221042,0.0212383983 Z" id="Rectangle-4" fill="#A8C7FF"></path>
                            <path d="M90.0161686,16.5279076 L143.200042,3.23193916 L143.200042,40.0760456 L89.8079395,20.3441816 C88.7718594,19.9612824 88.2423516,18.8109724 88.6252508,17.7748923 C88.8543644,17.154938 89.3749665,16.6882081 90.0161686,16.5279076 Z" id="Rectangle-3" fill="#81ADFF" transform="translate(113.466202, 21.653992) scale(-1, 1) translate(-113.466202, -21.653992) "></path>
                            <path d="M31.4929324,16.5279076 L84.6768061,3.23193916 L84.6768061,40.0760456 L31.2847034,20.3441816 C30.2486233,19.9612824 29.7191155,18.8109724 30.1020147,17.7748923 C30.3311282,17.154938 30.8517303,16.6882081 31.4929324,16.5279076 Z" id="Rectangle-3" fill="#97BCFF"></path>
                            <path d="M83.3958942,39.0593602 C84.0617478,39.5663061 84.3617015,40.4600751 84.0769893,41.295843 C84.0183429,41.4679987 83.9364884,41.6313506 83.8336893,41.7813817 L62.332975,73.1608025 C61.7943868,73.9468502 60.7760431,74.2437785 59.8993861,73.8703876 L27.718177,60.1635763 C26.9806102,59.8494275 26.5019011,59.1252105 26.5019011,58.3235283 L26.5019011,49.5550786 L58.9915997,61.1829707 C59.6831413,61.4304698 60.4547038,61.278998 61.0013475,60.7884203 L82.8380116,41.1914141 C83.0831154,40.9714491 83.2701073,40.694361 83.3823815,40.3847564 C83.5437194,39.9398549 83.537443,39.475008 83.3958942,39.0593602 Z" id="Combined-Shape" fill="#649BFF" opacity="0.363397854"></path>
                            <path d="M142.063237,39.0593602 C142.72909,39.5663061 143.029044,40.4600751 142.744332,41.295843 C142.685685,41.4679987 142.603831,41.6313506 142.501032,41.7813817 L121.000317,73.1608025 C120.461729,73.9468502 119.443385,74.2437785 118.566728,73.8703876 L86.3855194,60.1635763 C85.6479526,59.8494275 85.1692435,59.1252105 85.1692435,58.3235283 L85.1692435,49.5550786 L117.658942,61.1829707 C118.350484,61.4304698 119.122046,61.278998 119.66869,60.7884203 L141.505354,41.1914141 C141.750458,40.9714491 141.93745,40.694361 142.049724,40.3847564 C142.211062,39.9398549 142.204785,39.475008 142.063237,39.0593602 Z" id="Combined-Shape" fill="#9DC0FF" transform="translate(114.010477, 56.544948) scale(-1, 1) translate(-114.010477, -56.544948) "></path>
                        </g>
                        <g id="Rectangle-5">
                            <use fill="black" fill-opacity="1" filter="url(#filter-2)" xlink:href="#path-1"></use>
                            <use fill-opacity="0.8" fill="#E19B5A" fill-rule="evenodd" xlink:href="#path-1"></use>
                        </g>
                        <g id="Rectangle-5">
                            <use fill="black" fill-opacity="1" filter="url(#filter-4)" xlink:href="#path-3"></use>
                            <use fill-opacity="0.8" fill="#E19B5A" fill-rule="evenodd" xlink:href="#path-3"></use>
                        </g>
                        <g id="Group-6" transform="translate(46.000000, 0.000000)">
                            <path d="M43.463992,136.5 C32.7973253,129.166667 25.6426613,119.666667 22,108 C16.536008,90.5 34.768004,63.5 28.231996,46 C21.695988,28.5 9.06624495,28.7906092 5.46399197,30.5 C1.86173899,32.2093908 -4.78149274,40.8635933 5.46399197,55.5 C15.7094767,70.1364067 29.1071408,72.0733074 33.463992,70.5 C42.463992,67.25 43.4583266,64.1039816 47.963992,59.5 C54.8955495,52.417192 56.463992,39.4079118 56.463992,33.5 C56.463992,20.8333333 53.6306586,13.3333333 47.963992,11" id="Line" stroke="url(#linearGradient-5)" stroke-linecap="square"></path>
                            <g id="Group-4" transform="translate(37.000000, 0.000000)">
                                <circle id="Oval" fill="#E4F2FB" cx="3" cy="11" r="3"></circle>
                                <ellipse id="Oval" fill="#838698" transform="translate(8.000000, 7.500000) rotate(45.000000) translate(-8.000000, -7.500000) " cx="8" cy="7.5" rx="5" ry="3.5"></ellipse>
                                <circle id="Oval" fill="#838698" transform="translate(4.000000, 4.000000) rotate(45.000000) translate(-4.000000, -4.000000) " cx="4" cy="4" r="2"></circle>
                                <circle id="Oval" fill="#E4F2FB" cx="11" cy="3" r="3"></circle>
                            </g>
                        </g>
                    </g>
                </g>
            </g>
        </g>
    </g>
</svg>