<svg xmlns="http://www.w3.org/2000/svg" width="265" height="212" viewBox="0 0 265 212">
    <defs>
        <linearGradient id="空界面图-a" x1="50%" x2="50%" y1="0%" y2="100%">
            <stop offset="0%" stop-color="#838698"/>
            <stop offset="100%" stop-color="#FFF" stop-opacity=".2"/>
        </linearGradient>
    </defs>
    <g fill="none" fill-rule="evenodd">
        <g transform="translate(0 25)">
            <path fill="#DEE0ED" d="M12.8235294,1.6058583e-14 L205.176471,1.6058583e-14 C213.72549,1.6058583e-14 218,4.28571437 218,12.8571431 L218,149.142857 C218,157.714286 213.72549,162 205.176471,162 L12.8235294,162 C4.27450979,162 0,157.714286 0,149.142857 L0,12.8571431 C0,4.28571456 4.27450979,1.88337053e-07 12.8235294,1.6058583e-14 Z"/>
            <path fill="#CFD5F1" d="M85.116279,10 L184.883721,10 C188.294574,10 190,11.6666667 190,15.0000001 C190,18.3333334 188.294574,20 184.883721,20 L85.116279,20 C81.7054263,20 80,18.3333334 80,15.0000001 C80,11.6666669 81.7054263,10.0000002 85.116279,10 Z"/>
            <path fill="#F9FAFF" d="M17.9999999 10C21.3333331 10 22.9999998 11.6666667 23 15.0000001 23 18.3333334 21.3333333 20 17.9999999 20 14.6666666 20 13 18.3333334 13 15.0000001 13 11.6666669 14.6666666 10.0000002 17.9999999 10zM36.0000001 10C39.3333334 10 41 11.6666667 41 15.0000001 41 18.3333334 39.3333334 20 36.0000001 20 32.6666669 20 31.0000002 18.3333334 31 15.0000001 31 11.6666669 32.6666667 10.0000002 36.0000001 10zM53.9999999 10C57.3333331 10 58.9999998 11.6666667 59 15.0000001 59 18.3333334 57.3333333 20 53.9999999 20 50.6666666 20 49 18.3333334 49 15.0000001 49 11.6666669 50.6666666 10.0000002 53.9999999 10z"/>
            <path fill="#F2F4FD" d="M0,31 L218,31 L218,149.156863 C218,156.250128 212.258906,162 205.176471,162 L12.8235294,162 C5.74109399,162 0,156.250128 0,149.156863 L0,31 Z"/>
            <path fill="#DEE0ED" d="M18 57.4999999C17.9999999 61.6085542 20.1918875 65.4050149 23.7499999 67.4592921 27.3081123 69.5135693 31.6918877 69.5135693 35.2500001 67.4592921 38.8081125 65.4050149 41.0000001 61.6085542 41 57.4999999 41 51.1487253 35.8512746 46 29.5 46 23.1487254 46 18 51.1487253 18 57.4999999zM18 96.4999999C17.9999999 100.608554 20.1918875 104.405015 23.7499999 106.459292 27.3081123 108.513569 31.6918877 108.513569 35.2500001 106.459292 38.8081125 104.405015 41.0000001 100.608554 41 96.4999999 41 90.1487253 35.8512746 85 29.5 85 23.1487254 85 18 90.1487253 18 96.4999999zM18 134.5C17.9999999 138.608554 20.1918875 142.405015 23.7499999 144.459292 27.3081123 146.513569 31.6918877 146.513569 35.2500001 144.459292 38.8081125 142.405015 41.0000001 138.608554 41 134.5 41 128.148725 35.8512746 123 29.5 123 23.1487254 123 18 128.148725 18 134.5z"/>
            <path fill="#E8EAF4" d="M56.5757578 50L136.424242 50C138.141414 50 139 50.8333333 139 52.5 139 54.1666667 138.141414 55 136.424242 55L56.5757578 55C54.8585861 55 54.0000002 54.1666667 54 52.5 54 50.8333333 54.8585859 50 56.5757578 50zM56.5757578 89L136.424242 89C138.141414 89 139 89.8333333 139 91.4999999 139 93.1666664 138.141414 93.9999998 136.424242 94L56.5757578 94C54.8585861 94 54.0000002 93.1666666 54 91.4999999 54 89.8333333 54.8585859 89 56.5757578 89zM56.5757578 127L136.424242 127C138.141414 127 139 127.833333 139 129.5 139 131.166667 138.141414 132 136.424242 132L56.5757578 132C54.8585861 132 54.0000002 131.166667 54 129.5 54 127.833334 54.8585859 127 56.5757578 127zM56.5405407 60L98.4594593 60C100.153153 60 101 60.8333333 101 62.5 101 64.1666667 100.153153 65 98.4594593 65L56.5405407 65C54.8468471 65 54.0000002 64.1666667 54 62.5 54 60.8333333 54.8468469 60 56.5405407 60zM56.5405407 99L98.4594593 99C100.153153 99 101 99.8333333 101 101.5 101 103.166667 100.153153 104 98.4594593 104L56.5405407 104C54.8468471 104 54.0000002 103.166667 54 101.5 54 99.8333333 54.8468469 99 56.5405407 99zM56.5405407 137L98.4594593 137C100.153153 137 101 137.833333 101 139.5 101 141.166667 100.153153 142 98.4594593 142L56.5405407 142C54.8468471 142 54.0000002 141.166667 54 139.5 54 137.833334 54.8468469 137 56.5405407 137z"/>
            <path fill="#F2F4FD" d="M114.538462 58L142.461539 58C144.153846 58 145 58.8571429 145 60.5714288L145 73.4285715C145 75.1428572 144.153846 76 142.461539 76L114.538462 76C112.846154 76 112 75.1428572 112 73.4285715L112 60.5714288C112 58.8571431 112.846154 58.0000002 114.538462 58zM157.5 59L172.5 59C174.166667 59 175 59.8333333 175 61.5 175 63.1666667 174.166667 64 172.5 64L157.5 64C155.833333 64 155 63.1666667 155 61.5 155 59.8333333 155.833333 59 157.5 59zM186.5 59L201.5 59C203.166667 59 204 59.8333333 204 61.5 204 63.1666667 203.166667 64 201.5 64L186.5 64C184.833333 64 184 63.1666667 184 61.5 184 59.8333333 184.833333 59 186.5 59zM157.5 69L172.5 69C174.166667 69 175 69.8333334 175 71.5000001 175 73.1666667 174.166667 74 172.5 74L157.5 74C155.833333 74 155 73.1666667 155 71.5000001 155 69.8333336 155.833333 69.0000002 157.5 69zM186.5 69L201.5 69C203.166667 69 204 69.8333334 204 71.5000001 204 73.1666667 203.166667 74 201.5 74L186.5 74C184.833333 74 184 73.1666667 184 71.5000001 184 69.8333336 184.833333 69.0000002 186.5 69z"/>
        </g>
        <g transform="translate(96)">
            <g transform="translate(0 97)">
                <path fill="#6776C4" d="M26.4574969,17.4348272 L85.2787897,2.56790709 L85.2787897,114.393002 L27.6193805,87.7809672 C26.9110797,87.4540591 26.4574969,86.7451503 26.4574969,85.9650484 L26.4574969,17.4348272 Z"/>
                <path fill="#8694DF" d="M86.1867228,17.0531999 L143.498099,2.56790709 L143.498099,114.393002 L85.8386897,87.7809672 C85.1303889,87.4540591 84.6768061,86.7451503 84.6768061,85.9650484 L84.6768061,18.9922251 C84.6768061,18.076416 85.2988345,17.2776113 86.1867228,17.0531999 Z" transform="matrix(-1 0 0 1 228.175 0)"/>
                <path fill="#94A2EB" d="M27.5054131,17.8148408 L82.1396148,37.6272436 C83.1780147,38.0038062 83.7145398,39.15086 83.3379772,40.1892599 C83.225703,40.4988645 83.0387112,40.7759526 82.7936073,40.9959176 L60.9569432,60.5929238 C60.4102996,61.0835014 59.6387371,61.2349733 58.9471954,60.9874742 L2.05813267,40.6271781 C1.01816118,40.2549777 0.476825695,39.1101863 0.849026018,38.0702148 C0.975210547,37.7176404 1.19784606,37.4075744 1.49158981,37.1753119 L25.583115,18.126199 C26.1266745,17.6964077 26.853976,17.5786054 27.5054131,17.8148408 Z"/>
                <path fill="#94A2EB" d="M113.519399,17.8148408 L168.153601,37.6272436 C169.192001,38.0038062 169.728526,39.15086 169.351963,40.1892599 C169.239689,40.4988645 169.052697,40.7759526 168.807593,40.9959176 L146.970929,60.5929238 C146.424286,61.0835014 145.652723,61.2349733 144.961181,60.9874742 L88.0721187,40.6271781 C87.0321472,40.2549777 86.4908117,39.1101863 86.863012,38.0702148 C86.9891965,37.7176404 87.2118321,37.4075744 87.5055758,37.1753119 L111.597101,18.126199 C112.140661,17.6964077 112.867962,17.5786054 113.519399,17.8148408 Z" transform="matrix(-1 0 0 1 255.735 0)"/>
                <path fill="#94A2EB" d="M143.211375,0.0212383983 L166.768061,2.56790709 L108.943652,17.3452561 C108.711868,17.4044896 108.471338,17.4216577 108.233492,17.3959446 L95.6698063,16.0377084 C94.5716355,15.9189872 93.7776347,14.9325014 93.8963559,13.8343306 C93.9860316,13.0048305 94.5812189,12.3181482 95.3895734,12.1115687 L142.501215,0.0719269216 C142.732998,0.0126934105 142.973529,-0.00447473368 143.211375,0.0212383983 Z" transform="matrix(-1 0 0 1 242.749 0)"/>
                <path fill="#94A2EB" d="M61.7221042,0.0212383983 L85.2787897,2.56790709 L27.4543806,17.3452561 C27.2225973,17.4044896 26.9820668,17.4216577 26.7442203,17.3959446 L14.1805351,16.0377084 C13.0823643,15.9189872 12.2883635,14.9325014 12.4070847,13.8343306 C12.4967604,13.0048305 13.0919477,12.3181482 13.9003023,12.1115687 L61.011944,0.0719269216 C61.2437273,0.0126934105 61.4842578,-0.00447473368 61.7221042,0.0212383983 Z"/>
                <path fill="#5665B2" d="M90.0161686,16.5279076 L143.200042,3.23193916 L143.200042,40.0760456 L89.8079395,20.3441816 C88.7718594,19.9612824 88.2423516,18.8109724 88.6252508,17.7748923 C88.8543644,17.154938 89.3749665,16.6882081 90.0161686,16.5279076 Z" transform="matrix(-1 0 0 1 226.932 0)"/>
                <path fill="#7181D7" d="M31.4929324,16.5279076 L84.6768061,3.23193916 L84.6768061,40.0760456 L31.2847034,20.3441816 C30.2486233,19.9612824 29.7191155,18.8109724 30.1020147,17.7748923 C30.3311282,17.154938 30.8517303,16.6882081 31.4929324,16.5279076 Z"/>
                <path fill="#5665B2" d="M83.3958942,39.0593602 C84.0617478,39.5663061 84.3617015,40.4600751 84.0769893,41.295843 C84.0183429,41.4679987 83.9364884,41.6313506 83.8336893,41.7813817 L62.332975,73.1608025 C61.7943868,73.9468502 60.7760431,74.2437785 59.8993861,73.8703876 L27.718177,60.1635763 C26.9806102,59.8494275 26.5019011,59.1252105 26.5019011,58.3235283 L26.5019011,49.5550786 L58.9915997,61.1829707 C59.6831413,61.4304698 60.4547038,61.278998 61.0013475,60.7884203 L82.8380116,41.1914141 C83.0831154,40.9714491 83.2701073,40.694361 83.3823815,40.3847564 C83.5437194,39.9398549 83.537443,39.475008 83.3958942,39.0593602 Z"/>
                <path fill="#5665B2" d="M142.063237,39.0593602 C142.72909,39.5663061 143.029044,40.4600751 142.744332,41.295843 C142.685685,41.4679987 142.603831,41.6313506 142.501032,41.7813817 L121.000317,73.1608025 C120.461729,73.9468502 119.443385,74.2437785 118.566728,73.8703876 L86.3855194,60.1635763 C85.6479526,59.8494275 85.1692435,59.1252105 85.1692435,58.3235283 L85.1692435,49.5550786 L117.658942,61.1829707 C118.350484,61.4304698 119.122046,61.278998 119.66869,60.7884203 L141.505354,41.1914141 C141.750458,40.9714491 141.93745,40.694361 142.049724,40.3847564 C142.211062,39.9398549 142.204785,39.475008 142.063237,39.0593602 Z" transform="matrix(-1 0 0 1 228.021 0)"/>
            </g>
            <g transform="translate(46)">
                <path stroke="url(#空界面图-a)" stroke-linecap="square" d="M43.463992,136.5 C32.7973253,129.166667 25.6426613,119.666667 22,108 C16.536008,90.5 34.768004,63.5 28.231996,46 C21.695988,28.5 9.06624495,28.7906092 5.46399197,30.5 C1.86173899,32.2093908 -4.78149274,40.8635933 5.46399197,55.5 C15.7094767,70.1364067 29.1071408,72.0733074 33.463992,70.5 C42.463992,67.25 43.4583266,64.1039816 47.963992,59.5 C54.8955495,52.417192 56.463992,39.4079118 56.463992,33.5 C56.463992,20.8333333 53.6306586,13.3333333 47.963992,11"/>
                <g transform="translate(37)">
                    <circle cx="3" cy="11" r="3" fill="#D7DDFF"/>
                    <ellipse cx="8" cy="7.5" fill="#838698" rx="5" ry="3.5" transform="rotate(45 8 7.5)"/>
                    <circle cx="4" cy="4" r="2" fill="#838698" transform="rotate(45 4 4)"/>
                    <circle cx="11" cy="3" r="3" fill="#D7DDFF"/>
                </g>
            </g>
        </g>
        <path fill="#FFBA1C" d="M142 170C142.947726 172.72071 143.614392 174.207889 144 174.461538 144.385608 174.715188 145.052274 174.343393 146 173.346154 146.338834 175.320021 146.672168 176.306707 147 176.306213 147.531157 176.305413 148.289464 173.325381 148.5 173.346154 148.663312 173.362268 149.21113 176.089641 150 176.306213 150.394588 176.414541 150.980475 174.462846 152 174.461538 152.40484 174.461019 152.096344 176.061185 153 176.306213 153.384864 176.410569 154.051531 176.081674 155 175.319527L155 199 142 193.423077 142 170zM221 170L221 192.307692 208 199 208 175.319527C208.948469 176.081674 209.615136 176.410569 210 176.306213 210.903656 176.061185 210.59516 174.461019 211 174.461538 212.019525 174.462846 212.605412 176.414541 213 176.306213 213.78887 176.089641 214.336688 173.362268 214.5 173.346154 214.710536 173.325381 215.468843 176.305413 216 176.306213 216.327832 176.306707 216.661166 175.320021 217 173.346154 217.947726 174.343393 218.614392 174.715188 219 174.461538 219.385608 174.207889 220.052274 172.72071 221 170z"/>
    </g>
</svg>
