<?xml version="1.0" encoding="UTF-8" standalone="no"?>
<svg width="208px" height="123px" viewBox="0 0 208 123" version="1.1" xmlns="http://www.w3.org/2000/svg" xmlns:xlink="http://www.w3.org/1999/xlink">
    <!-- Generator: Sketch 49 (51002) - http://www.bohemiancoding.com/sketch -->
    <title>Group 8</title>
    <desc>Created with Sketch.</desc>
    <defs></defs>
    <g id="报表" stroke="none" stroke-width="1" fill="none" fill-rule="evenodd">
        <g id="DevOps报表" transform="translate(-918.000000, -275.000000)">
            <g id="Group-5" transform="translate(274.000000, 132.000000)">
                <g id="所有报表－版本报告" transform="translate(608.000000, 102.000000)">
                    <g id="Group" transform="translate(18.000000, 18.000000)">
                        <g id="Group-8" transform="translate(18.000000, 24.000000)">
                            <g id="Group-6" transform="translate(0.000000, 96.000000)" fill="#000000" fill-opacity="0.08">
                                <g id="Rectangle-4">
                                    <rect x="0" y="0" width="90.4347826" height="9" rx="4"></rect>
                                    <rect x="101.73913" y="0" width="45.2173913" height="9" rx="4"></rect>
                                    <rect x="158.26087" y="0" width="49.7391304" height="9" rx="4"></rect>
                                </g>
                            </g>
                            <g id="Group-6" transform="translate(0.000000, 113.000000)" fill="#000000" fill-opacity="0.08">
                                <g id="Rectangle-4">
                                    <rect x="0" y="0" width="90.4347826" height="9" rx="4"></rect>
                                    <rect x="101.73913" y="0" width="45.2173913" height="9" rx="4"></rect>
                                    <rect x="158.26087" y="0" width="49.7391304" height="9" rx="4"></rect>
                                </g>
                            </g>
                            <g id="Group-13">
                                <g id="Group-2" stroke-linecap="square">
                                    <path d="M1.97156398,78.5 L206.023674,78.5" id="Line" stroke="#DFDFDF"></path>
                                    <path d="M1.97156398,58.5 L206.023674,58.5" id="Line" stroke="#DFDFDF"></path>
                                    <path d="M1.97156398,39.5 L206.023674,39.5" id="Line" stroke="#DFDFDF"></path>
                                    <path d="M1.97156398,19.5 L206.023674,19.5" id="Line" stroke="#DFDFDF"></path>
                                    <path d="M1.97156398,0.5 L206.023674,0.5" id="Line" stroke="#DFDFDF"></path>
                                    <path d="M138.509513,0 L138.509513,80" id="Line-6" stroke-opacity="0.04" stroke="#000000"></path>
                                    <path d="M1.48581633,0 L1.48581633,80" id="Line-6" stroke-opacity="0.04" stroke="#000000"></path>
                                    <path d="M35.988186,0 L35.988186,80" id="Line-6" stroke-opacity="0.04" stroke="#000000"></path>
                                    <path d="M172.026101,0 L172.026101,80" id="Line-6" stroke-opacity="0.04" stroke="#000000"></path>
                                    <path d="M104.007143,0 L104.007143,80" id="Line-6" stroke-opacity="0.04" stroke="#000000"></path>
                                    <path d="M206.52847,0 L206.52847,80" id="Line-6" stroke-opacity="0.04" stroke="#000000"></path>
                                    <path d="M69.5047737,0 L69.5047737,80" id="Line-6" stroke-opacity="0.04" stroke="#000000"></path>
                                </g>
                                <g id="chart" transform="translate(7.000000, 6.000000)" fill-opacity="0.6">
                                    <g id="Group-9" transform="translate(0.000000, 23.000000)">
                                        <path d="M2.84536735,0.529411765 L8.84536735,0.529411765 C9.94993685,0.529411765 10.8453674,1.42484227 10.8453674,2.52941176 L10.8453674,12.7647059 L0.845367354,12.7647059 L0.845367354,2.52941176 C0.845367354,1.42484227 1.74079785,0.529411765 2.84536735,0.529411765 Z" id="Rectangle-3" fill="#FFB100"></path>
                                        <rect id="Rectangle-3" fill="#00BFA5" x="0.845367354" y="12.4942372" width="10" height="37.2113037"></rect>
                                    </g>
                                    <g id="Group-10" transform="translate(23.608696, 0.000000)">
                                        <rect id="Rectangle-3" fill="#00BFA5" x="0.608695652" y="12.2352941" width="10" height="60.7407154"></rect>
                                        <path d="M2.60869565,7.10542736e-14 L8.60869565,7.0832229e-14 C9.71326515,7.06293228e-14 10.6086957,0.8954305 10.6086957,2 L10.6086957,12.2352941 L0.608695652,12.2352941 L0.608695652,2 C0.608695652,0.8954305 1.50412615,7.12571797e-14 2.60869565,7.10542736e-14 Z" id="Rectangle-3" fill="#FFB100"></path>
                                    </g>
                                    <g id="Group-11" transform="translate(46.608696, 13.000000)">
                                        <rect id="Rectangle-3" fill="#00BFA5" x="0.608695652" y="14" width="10" height="45.9760096"></rect>
                                        <path d="M2.60869565,0.472893366 L8.60869565,0.472893366 C9.71326515,0.472893366 10.6086957,1.36832387 10.6086957,2.47289337 L10.6086957,14 L0.608695652,14 L0.608695652,2.47289337 C0.608695652,1.36832387 1.50412615,0.472893366 2.60869565,0.472893366 Z" id="Rectangle-3" fill="#FFB100"></path>
                                    </g>
                                    <g id="Group-12" transform="translate(70.608696, 35.000000)">
                                        <rect id="Rectangle-3" fill="#00BFA5" x="0.608695652" y="13" width="10" height="24.9760096"></rect>
                                        <path d="M2.60869565,0.764705882 L8.60869565,0.764705882 C9.71326515,0.764705882 10.6086957,1.66013638 10.6086957,2.76470588 L10.6086957,13 L0.608695652,13 L0.608695652,2.76470588 C0.608695652,1.66013638 1.50412615,0.764705882 2.60869565,0.764705882 Z" id="Rectangle-3" fill="#FFB100"></path>
                                    </g>
                                    <g id="Group-18" transform="translate(93.608696, 23.000000)">
                                        <path d="M2.60869565,0.799880475 L8.60869565,0.799880475 C9.71326515,0.799880475 10.6086957,1.69531098 10.6086957,2.79988047 L10.6086957,15 L0.608695652,15 L0.608695652,2.79988047 C0.608695652,1.69531098 1.50412615,0.799880475 2.60869565,0.799880475 Z" id="Rectangle-3" fill="#FFB100"></path>
                                        <rect id="Rectangle-3" fill="#00BFA5" x="0.608695652" y="15" width="10" height="34.9760096"></rect>
                                    </g>
                                    <g id="Group-19" transform="translate(116.608696, 40.000000)">
                                        <rect id="Rectangle-3" fill="#00BFA5" x="0.608695652" y="12.9763511" width="10" height="19.9996585"></rect>
                                        <path d="M2.60869565,0.741056945 L8.60869565,0.741056945 C9.71326515,0.741056945 10.6086957,1.63648745 10.6086957,2.74105695 L10.6086957,12.9763511 L0.608695652,12.9763511 L0.608695652,2.74105695 C0.608695652,1.63648745 1.50412615,0.741056945 2.60869565,0.741056945 Z" id="Rectangle-3" fill="#FFB100"></path>
                                    </g>
                                    <g id="Group-20" transform="translate(140.608696, 29.000000)">
                                        <rect id="Rectangle-3" fill="#00BFA5" x="0" y="12.2352941" width="10" height="31.7643644"></rect>
                                        <path d="M2,0 L8,-2.22044605e-16 C9.1045695,-4.2495073e-16 10,0.8954305 10,2 L10,12.2352941 L0,12.2352941 L0,2 C-1.3527075e-16,0.8954305 0.8954305,2.02906125e-16 2,0 Z" id="Rectangle-3" fill="#FFB100"></path>
                                    </g>
                                    <g id="Group-21" transform="translate(162.608696, 12.000000)">
                                        <rect id="Rectangle-3" fill="#00BFA5" x="0" y="12.2352941" width="10" height="48.7643644"></rect>
                                        <path d="M2,0 L8,-2.22044605e-16 C9.1045695,-4.2495073e-16 10,0.8954305 10,2 L10,12.2352941 L0,12.2352941 L0,2 C-1.3527075e-16,0.8954305 0.8954305,2.02906125e-16 2,0 Z" id="Rectangle-3" fill="#FFB100"></path>
                                    </g>
                                    <g id="Group-22" transform="translate(184.608696, 41.000000)">
                                        <rect id="Rectangle-3" fill="#00BFA5" x="0" y="12" width="10" height="19.9996585"></rect>
                                        <path d="M2,0 L8,-2.22044605e-16 C9.1045695,-4.2495073e-16 10,0.8954305 10,2 L10,12.2352941 L0,12.2352941 L0,2 C-1.3527075e-16,0.8954305 0.8954305,2.02906125e-16 2,0 Z" id="Rectangle-3" fill="#FFB100"></path>
                                    </g>
                                </g>
                            </g>
                        </g>
                    </g>
                </g>
            </g>
        </g>
    </g>
</svg>