<svg xmlns="http://www.w3.org/2000/svg" xmlns:xlink="http://www.w3.org/1999/xlink" width="68" height="71" viewBox="0 0 68 71">
  <defs>
    <polygon id="流水线-应用版本为空-a" points="0 .317 67.683 .317 67.683 68 0 68"/>
    <polygon id="流水线-应用版本为空-c" points="0 70.519 67.683 70.519 67.683 .202 0 .202"/>
    <path id="流水线-应用版本为空-e" d="M0.116859259,4.28702222 C0.116859259,6.51238519 1.92112593,8.31665185 4.14648889,8.31665185 C6.37235556,8.31665185 8.17611852,6.51238519 8.17611852,4.28702222 C8.17611852,2.06115556 6.37235556,0.256888889 4.14648889,0.256888889 C1.92112593,0.256888889 0.116859259,2.06115556 0.116859259,4.28702222 Z M4.27745185,5.70696296 L5.26471111,2.77591111 L5.90441481,2.77591111 L4.62500741,6.37235556 L3.91478519,6.37235556 L2.63537778,2.77591111 L3.27508148,2.77591111 L4.26234074,5.70696296 L4.27745185,5.70696296 Z"/>
  </defs>
  <g fill="none" fill-rule="evenodd">
    <g transform="translate(0 .302)">
      <g transform="translate(0 2.519)">
        <mask id="流水线-应用版本为空-b" fill="#fff">
          <use xlink:href="#流水线-应用版本为空-a"/>
        </mask>
        <path fill="#F5F6F8" d="M67.6825156,34.1587674 C67.6825156,52.8486933 52.5316119,68.0001007 33.8411822,68.0001007 C15.1512563,68.0001007 -0.000151111111,52.8486933 -0.000151111111,34.1587674 C-0.000151111111,15.4688415 15.1512563,0.31693037 33.8411822,0.31693037 C52.5316119,0.31693037 67.6825156,15.4688415 67.6825156,34.1587674" mask="url(#流水线-应用版本为空-b)"/>
      </g>
      <mask id="流水线-应用版本为空-d" fill="#fff">
        <use xlink:href="#流水线-应用版本为空-c"/>
      </mask>
      <circle cx="34" cy="37" r="34" fill="#BABDC7" fill-rule="nonzero" mask="url(#流水线-应用版本为空-d)" opacity=".172"/>
      <polygon fill="#D9DBE4" points="18.848 37.529 48.882 37.529 48.882 24.374 18.848 24.374" mask="url(#流水线-应用版本为空-d)"/>
      <polygon fill="#CFD2D9" points="18.848 24.374 11.28 41.782 11.28 56.674 18.848 37.529" mask="url(#流水线-应用版本为空-d)"/>
      <polygon fill="#CFD2D9" points="55.668 56.674 48.882 37.529 48.882 24.374 55.668 41.782" mask="url(#流水线-应用版本为空-d)"/>
      <polygon fill="#BABDC7" points="18.848 37.529 48.882 37.529 55.859 56.674 11.28 56.674" mask="url(#流水线-应用版本为空-d)"/>
      <path fill="#E3E5EC" d="M11.280243,41.7822222 L11.280243,56.6737185 L55.6686281,56.6737185 L55.6686281,41.7822222 L38.3855467,41.7822222 C38.3855467,47.4886815 29.1788504,47.4886815 29.1788504,41.7822222 L11.280243,41.7822222 Z" mask="url(#流水线-应用版本为空-d)"/>
      <path stroke="#9EA5B7" stroke-dasharray="4 5" stroke-linecap="square" stroke-width="1.2" d="M26.7373985,33.3555111 C31.1553837,31.3739407 36.0972207,27.846 38.3477689,23.5181778 C39.7022281,20.9135259 38.857517,14.4913037 34.478317,15.8210815 C33.4049244,16.1469778 32.5501393,17.1352444 32.4292504,18.2297926 C32.1481837,20.7845778 35.189043,21.7804 37.3010726,21.7234815 C42.9057837,21.5723704 46.7525689,16.6748593 49.2393541,12.282563" mask="url(#流水线-应用版本为空-d)"/>
      <polygon fill="#C5C9D3" points="43.491 8.117 48.727 11.222 59.626 1.055 50.25 11.222 56.947 14.327 60.722 .202" mask="url(#流水线-应用版本为空-d)"/>
      <polygon fill="#AFB4C3" points="50.531 12.283 50.531 17.13 53.267 14.058" mask="url(#流水线-应用版本为空-d)"/>
    </g>
    <g transform="translate(29.719 47.146)">
      <mask id="流水线-应用版本为空-f" fill="#fff">
        <use xlink:href="#流水线-应用版本为空-e"/>
      </mask>
      <polygon fill="#BABDC7" points="-2.402 10.835 10.695 10.835 10.695 -2.261 -2.402 -2.261" mask="url(#流水线-应用版本为空-f)"/>
    </g>
  </g>
</svg>
