<?xml version="1.0" encoding="UTF-8" standalone="no"?>
<svg width="208px" height="123px" viewBox="0 0 208 123" version="1.1" xmlns="http://www.w3.org/2000/svg" xmlns:xlink="http://www.w3.org/1999/xlink">
    <!-- Generator: Sketch 49 (51002) - http://www.bohemiancoding.com/sketch -->
    <title>Group 8</title>
    <desc>Created with Sketch.</desc>
    <defs></defs>
    <g id="报表" stroke="none" stroke-width="1" fill="none" fill-rule="evenodd">
        <g id="DevOps报表" transform="translate(-309.000000, -611.000000)">
            <g id="Group-5" transform="translate(274.000000, 132.000000)">
                <g id="所有报表－版本报告" transform="translate(0.000000, 438.000000)">
                    <g id="Group" transform="translate(18.000000, 18.000000)">
                        <g id="Group-8" transform="translate(17.000000, 24.000000)">
                            <g id="Group-6" transform="translate(0.000000, 96.000000)" fill="#000000" fill-opacity="0.08">
                                <g id="Rectangle-4">
                                    <rect x="0" y="0" width="90.4347826" height="9" rx="4"></rect>
                                    <rect x="101.73913" y="0" width="45.2173913" height="9" rx="4"></rect>
                                    <rect x="158.26087" y="0" width="49.7391304" height="9" rx="4"></rect>
                                </g>
                            </g>
                            <g id="Group-6" transform="translate(0.000000, 113.000000)" fill="#000000" fill-opacity="0.08">
                                <g id="Rectangle-4">
                                    <rect x="0" y="0" width="90.4347826" height="9" rx="4"></rect>
                                    <rect x="101.73913" y="0" width="45.2173913" height="9" rx="4"></rect>
                                    <rect x="158.26087" y="0" width="49.7391304" height="9" rx="4"></rect>
                                </g>
                            </g>
                            <g id="Group-13">
                                <g id="Group-2" stroke-linecap="square">
                                    <path d="M1.97156398,78.5 L206.023674,78.5" id="Line" stroke="#DFDFDF"></path>
                                    <path d="M1.97156398,58.5 L206.023674,58.5" id="Line" stroke="#DFDFDF"></path>
                                    <path d="M1.97156398,39.5 L206.023674,39.5" id="Line" stroke="#DFDFDF"></path>
                                    <path d="M1.97156398,19.5 L206.023674,19.5" id="Line" stroke="#DFDFDF"></path>
                                    <path d="M1.97156398,0.5 L206.023674,0.5" id="Line" stroke="#DFDFDF"></path>
                                    <path d="M138.509513,0 L138.509513,80" id="Line-6" stroke-opacity="0.04" stroke="#000000"></path>
                                    <path d="M1.48581633,0 L1.48581633,80" id="Line-6" stroke-opacity="0.04" stroke="#000000"></path>
                                    <path d="M35.988186,0 L35.988186,80" id="Line-6" stroke-opacity="0.04" stroke="#000000"></path>
                                    <path d="M172.026101,0 L172.026101,80" id="Line-6" stroke-opacity="0.04" stroke="#000000"></path>
                                    <path d="M104.007143,0 L104.007143,80" id="Line-6" stroke-opacity="0.04" stroke="#000000"></path>
                                    <path d="M206.52847,0 L206.52847,80" id="Line-6" stroke-opacity="0.04" stroke="#000000"></path>
                                    <path d="M69.5047737,0 L69.5047737,80" id="Line-6" stroke-opacity="0.04" stroke="#000000"></path>
                                </g>
                                <g id="chart" transform="translate(5.000000, 6.000000)" fill="#4D90FE" fill-opacity="0.6">
                                    <path d="M2.84945125,30.0893497 L4.87843676,30.0893497 C5.98300626,30.0893497 6.87843676,30.9847802 6.87843676,32.0893497 L6.87843676,72.6665391 L0.849451254,72.6665391 L0.849451254,32.0893497 C0.849451254,30.9847802 1.74488175,30.0893497 2.84945125,30.0893497 Z" id="Rectangle-3"></path>
                                    <path d="M32.5826507,0 L34.6116362,0 C35.7162057,-2.02906125e-16 36.6116362,0.8954305 36.6116362,2 L36.6116362,72.9760096 L30.5826507,72.9760096 L30.5826507,2 C30.5826507,0.8954305 31.4780812,2.02906125e-16 32.5826507,0 Z" id="Rectangle-3"></path>
                                    <path d="M61.5826507,20.3702399 L63.6116362,20.3702399 C64.7162057,20.3702399 65.6116362,21.2656704 65.6116362,22.3702399 L65.6116362,72.9760096 L59.5826507,72.9760096 L59.5826507,22.3702399 C59.5826507,21.2656704 60.4780812,20.3702399 61.5826507,20.3702399 Z" id="Rectangle-3"></path>
                                    <path d="M75.5826507,44.3984488 L77.6116362,44.3984488 C78.7162057,44.3984488 79.6116362,45.2938793 79.6116362,46.3984488 L79.6116362,72.9760096 L73.5826507,72.9760096 L73.5826507,46.3984488 C73.5826507,45.2938793 74.4780812,44.3984488 75.5826507,44.3984488 Z" id="Rectangle-3"></path>
                                    <path d="M105.582651,32.9564446 L107.611636,32.9564446 C108.716206,32.9564446 109.611636,33.8518751 109.611636,34.9564446 L109.611636,72.9760096 L103.582651,72.9760096 L103.582651,34.9564446 C103.582651,33.8518751 104.478081,32.9564446 105.582651,32.9564446 Z" id="Rectangle-3"></path>
                                    <path d="M119.582651,50.0923918 L121.611636,50.0923918 C122.716206,50.0923918 123.611636,50.9878223 123.611636,52.0923918 L123.611636,72.9760096 L117.582651,72.9760096 L117.582651,52.0923918 C117.582651,50.9878223 118.478081,50.0923918 119.582651,50.0923918 Z" id="Rectangle-3"></path>
                                    <path d="M17.5826507,41.6905296 L19.6116362,41.6905296 C20.7162057,41.6905296 21.6116362,42.5859601 21.6116362,43.6905296 L21.6116362,72.6665391 L15.5826507,72.6665391 L15.5826507,43.6905296 C15.5826507,42.5859601 16.4780812,41.6905296 17.5826507,41.6905296 Z" id="Rectangle-3"></path>
                                    <path d="M46.5826507,9 L48.6116362,9 C49.7162057,9 50.6116362,9.8954305 50.6116362,11 L50.6116362,72.9760096 L44.5826507,72.9760096 L44.5826507,11 C44.5826507,9.8954305 45.4780812,9 46.5826507,9 Z" id="Rectangle-3"></path>
                                    <path d="M149.582651,20.3702399 L151.611636,20.3702399 C152.716206,20.3702399 153.611636,21.2656704 153.611636,22.3702399 L153.611636,72.9760096 L147.582651,72.9760096 L147.582651,22.3702399 C147.582651,21.2656704 148.478081,20.3702399 149.582651,20.3702399 Z" id="Rectangle-3"></path>
                                    <path d="M163.582651,42 L165.611636,42 C166.716206,42 167.611636,42.8954305 167.611636,44 L167.611636,72.9760096 L161.582651,72.9760096 L161.582651,44 C161.582651,42.8954305 162.478081,42 163.582651,42 Z" id="Rectangle-3"></path>
                                    <path d="M90.5826507,30 L92.6116362,30 C93.7162057,30 94.6116362,30.8954305 94.6116362,32 L94.6116362,72.5771895 L88.5826507,72.5771895 L88.5826507,32 C88.5826507,30.8954305 89.4780812,30 90.5826507,30 Z" id="Rectangle-3"></path>
                                    <path d="M134.582651,3 L136.611636,3 C137.716206,3 138.611636,3.8954305 138.611636,5 L138.611636,72.4995524 L132.582651,72.4995524 L132.582651,5 C132.582651,3.8954305 133.478081,3 134.582651,3 Z" id="Rectangle-3"></path>
                                    <path d="M178.582651,32.8640528 L180.611636,32.8640528 C181.716206,32.8640528 182.611636,33.7594833 182.611636,34.8640528 L182.611636,72.8836177 L176.582651,72.8836177 L176.582651,34.8640528 C176.582651,33.7594833 177.478081,32.8640528 178.582651,32.8640528 Z" id="Rectangle-3"></path>
                                    <path d="M192.582651,61.4418089 L194.611636,61.4418089 C195.716206,61.4418089 196.611636,62.3372394 196.611636,63.4418089 L196.611636,72.8836177 L190.582651,72.8836177 L190.582651,63.4418089 C190.582651,62.3372394 191.478081,61.4418089 192.582651,61.4418089 Z" id="Rectangle-3"></path>
                                </g>
                            </g>
                        </g>
                    </g>
                </g>
            </g>
        </g>
    </g>
</svg>