<?xml version="1.0" encoding="UTF-8" standalone="no"?>
<svg width="209px" height="124px" viewBox="0 0 209 124" version="1.1" xmlns="http://www.w3.org/2000/svg" xmlns:xlink="http://www.w3.org/1999/xlink">
    <!-- Generator: Sketch 49 (51002) - http://www.bohemiancoding.com/sketch -->
    <title>Group 17</title>
    <desc>Created with Sketch.</desc>
    <defs></defs>
    <g id="报表" stroke="none" stroke-width="1" fill="none" fill-rule="evenodd">
        <g id="DevOps报表" transform="translate(-308.000000, -273.000000)">
            <g id="Group-5" transform="translate(274.000000, 132.000000)">
                <g id="所有报表－代码提交情况" transform="translate(0.000000, 102.000000)">
                    <g id="Group" transform="translate(18.000000, 18.000000)">
                        <g id="Group-17" transform="translate(17.000000, 22.000000)">
                            <g id="Group-15">
                                <g id="Group-16" stroke="#000000" stroke-linecap="square" stroke-opacity="0.04">
                                    <path d="M0,69.4444444 L207.128492,69.4444444" id="Line"></path>
                                    <path d="M0,51.6666667 L207.128492,51.6666667" id="Line"></path>
                                    <path d="M0,35 L207.128492,35" id="Line"></path>
                                    <path d="M0,17.2222222 L207.128492,17.2222222" id="Line"></path>
                                    <path d="M0,0.555555556 L207.128492,0.555555556" id="Line"></path>
                                    <path d="M1,0 L1,70" id="Line-6"></path>
                                    <path d="M35.1666667,0 L35.1666667,70" id="Line-6"></path>
                                    <path d="M69.3333333,0 L69.3333333,70" id="Line-6"></path>
                                    <path d="M103.5,0 L103.5,70" id="Line-6"></path>
                                    <path d="M137.666667,0 L137.666667,70" id="Line-6"></path>
                                    <path d="M171.833333,0 L171.833333,70" id="Line-6"></path>
                                    <path d="M206,0 L206,70" id="Line-6"></path>
                                </g>
                                <g id="Group-4" transform="translate(0.000000, 8.000000)">
                                    <path d="M206,14.4705064 C201.333333,32.2585669 195,41.1525972 187,41.1525972 C175,41.1525972 166,9.16657814e-14 151,1.95158168e-14 C136,-5.38102605e-14 130.680622,33.3755229 123,33.3755229 C115.319378,33.3755229 115,14.4705064 103.564246,14.4705064 C92.1284916,14.4705064 84.1751285,50.0839284 70,50.0839284 C55.8248715,50.0839284 39,3.70333529e-14 26,0 C17.3333333,-2.45223786e-14 8.66666667,9.74805182 1.42108547e-14,29.2441555 L0,61 L206,61 L206,14.4705064 Z" id="Line" fill-opacity="0.4" fill="#4677DD"></path>
                                    <path d="M206,14.4462574 C201.333333,32.2045094 195,41.0836355 187,41.0836355 C175,41.0836355 166,9.15121719e-14 151,1.9483113e-14 C136,-5.37200877e-14 130.680622,33.3195937 123,33.3195937 C115.319378,33.3195937 115,14.4462574 103.564246,14.4462574 C92.1284916,14.4462574 84.1751285,50 70,50 C55.8248715,50 39,3.69712941e-14 26,0 C17.3333333,-2.44812851e-14 8.66666667,9.73171647 0,29.1951494" id="Line" stroke="#4677DD" stroke-linecap="square"></path>
                                </g>
                            </g>
                            <g id="Group-14" transform="translate(0.000000, 78.000000)">
                                <g id="Group-16" stroke="#000000" stroke-linecap="square" stroke-opacity="0.04">
                                    <path d="M0,15 L100,15" id="Line"></path>
                                    <path d="M0,29 L100,29" id="Line"></path>
                                    <path d="M0,43 L100,43" id="Line"></path>
                                    <path d="M0,1 L100,1" id="Line"></path>
                                    <path d="M1,0 L1,44" id="Line-6"></path>
                                    <path d="M34,0 L34,44" id="Line-6"></path>
                                    <path d="M67,0 L67,44" id="Line-6"></path>
                                    <path d="M100,0 L100,44" id="Line-6"></path>
                                </g>
                                <g id="Group-4" transform="translate(50.500000, 25.500000) scale(-1, 1) translate(-50.500000, -25.500000) translate(1.000000, 7.000000)">
                                    <path d="M79,-5.68434189e-14 C68,-7.57180125e-14 58,28 47,28 C34,28 33,15 23,15 C16.3333333,15 8.66666667,22.3333333 0,37 L98.4013881,37 C92.8004627,12.3333333 86.3333333,-4.50010399e-14 79,-5.68434189e-14 Z" id="Line" fill-opacity="0.4" fill="#FF9915"></path>
                                    <path d="M99,37 C93,12.3333333 86.3333333,-4.50010399e-14 79,-5.68434189e-14 C68,-7.57180125e-14 58,28 47,28 C34,28 33,15 23,15 C16.3333333,15 8.66666667,22.3333333 0,37" id="Line" stroke="#FF9915" stroke-linecap="square"></path>
                                </g>
                            </g>
                            <g id="Group-14" transform="translate(107.000000, 78.000000)">
                                <g id="Group-16" stroke="#000000" stroke-linecap="square" stroke-opacity="0.04">
                                    <path d="M0,15 L100,15" id="Line"></path>
                                    <path d="M0,29 L100,29" id="Line"></path>
                                    <path d="M0,43 L100,43" id="Line"></path>
                                    <path d="M0,1 L100,1" id="Line"></path>
                                    <path d="M1,0 L1,44" id="Line-6"></path>
                                    <path d="M34,0 L34,44" id="Line-6"></path>
                                    <path d="M67,0 L67,44" id="Line-6"></path>
                                    <path d="M100,0 L100,44" id="Line-6"></path>
                                </g>
                                <g id="Group-4" transform="translate(1.000000, 9.000000)">
                                    <path d="M98.4013881,19.0939656 C95.4671294,15.0313219 92.3333333,13 89,13 C84,13 70,28 62,28 C43,28 37,0 25,0 C17,3.48471816e-16 8.66666667,11.6666667 0,35 L98.4013881,35 L98.4013881,19.0939656 Z" id="Line" fill-opacity="0.4" fill="#FF9915"></path>
                                    <path d="M98.4013881,19.0939656 C95.4671294,15.0313219 92.3333333,13 89,13 C84,13 70,28 62,28 C43,28 37,0 25,0 C17,3.48471816e-16 8.66666667,11.6666667 0,35" id="Line" stroke="#FF9915" stroke-linecap="square"></path>
                                </g>
                            </g>
                        </g>
                    </g>
                </g>
            </g>
        </g>
    </g>
</svg>